G04 #@! TF.FileFunction,Copper,L2,Bot,Signal*
%FSLAX46Y46*%
G04 Gerber Fmt 4.6, Leading zero omitted, Abs format (unit mm)*
G04 Created by KiCad (PCBNEW 4.0.2+dfsg1-stable) date Sun 09 Apr 2017 07:28:00 PM CDT*
%MOMM*%
G01*
G04 APERTURE LIST*
%ADD10C,0.100000*%
%ADD11R,2.000000X1.900000*%
%ADD12C,1.900000*%
%ADD13C,1.524000*%
%ADD14C,1.998980*%
%ADD15C,1.699260*%
%ADD16O,1.200000X2.000000*%
%ADD17R,2.032000X2.032000*%
%ADD18O,2.032000X2.032000*%
%ADD19C,0.254000*%
G04 APERTURE END LIST*
D10*
D11*
X90170000Y-104140000D03*
D12*
X90170000Y-101600000D03*
D13*
X88900000Y-121920000D03*
X91440000Y-121920000D03*
X86360000Y-121920000D03*
D14*
X91440000Y-118110000D03*
X91440000Y-107950000D03*
X87630000Y-107950000D03*
X87630000Y-118110000D03*
D15*
X88900000Y-127000000D03*
X86608920Y-127000000D03*
X91191080Y-127000000D03*
X128270000Y-127000000D03*
X125978920Y-127000000D03*
X130561080Y-127000000D03*
D16*
X100330000Y-101600000D03*
X100330000Y-121920000D03*
X102870000Y-101600000D03*
X102870000Y-121920000D03*
X105410000Y-101600000D03*
X105410000Y-121920000D03*
X107950000Y-101600000D03*
X107950000Y-121920000D03*
X110490000Y-101600000D03*
X110490000Y-121920000D03*
X113030000Y-101600000D03*
X113030000Y-121920000D03*
X115570000Y-101600000D03*
X115570000Y-121920000D03*
X118110000Y-101600000D03*
X118110000Y-121920000D03*
X120650000Y-101600000D03*
X120650000Y-121920000D03*
X123190000Y-101600000D03*
X123190000Y-121920000D03*
D17*
X85090000Y-104140000D03*
D18*
X85090000Y-101600000D03*
D19*
G36*
X131953000Y-126480985D02*
X131820422Y-126160123D01*
X131403154Y-125742126D01*
X130857687Y-125515628D01*
X130267064Y-125515112D01*
X129721203Y-125740658D01*
X129322453Y-126138713D01*
X129313690Y-126135915D01*
X128449605Y-127000000D01*
X129313690Y-127864085D01*
X129322952Y-127861128D01*
X129719006Y-128257874D01*
X130264473Y-128484372D01*
X130855096Y-128484888D01*
X131400957Y-128259342D01*
X131818954Y-127842074D01*
X131953000Y-127519256D01*
X131953000Y-128778000D01*
X83947000Y-128778000D01*
X83947000Y-127294016D01*
X85124032Y-127294016D01*
X85349578Y-127839877D01*
X85766846Y-128257874D01*
X86312313Y-128484372D01*
X86902936Y-128484888D01*
X87448797Y-128259342D01*
X87664825Y-128043690D01*
X88035915Y-128043690D01*
X88116142Y-128294953D01*
X88671367Y-128496350D01*
X89261399Y-128469941D01*
X89683858Y-128294953D01*
X89764085Y-128043690D01*
X88900000Y-127179605D01*
X88035915Y-128043690D01*
X87664825Y-128043690D01*
X87847547Y-127861287D01*
X87856310Y-127864085D01*
X88720395Y-127000000D01*
X89079605Y-127000000D01*
X89943690Y-127864085D01*
X89952952Y-127861128D01*
X90349006Y-128257874D01*
X90894473Y-128484372D01*
X91485096Y-128484888D01*
X92030957Y-128259342D01*
X92448954Y-127842074D01*
X92675452Y-127296607D01*
X92675454Y-127294016D01*
X124494032Y-127294016D01*
X124719578Y-127839877D01*
X125136846Y-128257874D01*
X125682313Y-128484372D01*
X126272936Y-128484888D01*
X126818797Y-128259342D01*
X127034825Y-128043690D01*
X127405915Y-128043690D01*
X127486142Y-128294953D01*
X128041367Y-128496350D01*
X128631399Y-128469941D01*
X129053858Y-128294953D01*
X129134085Y-128043690D01*
X128270000Y-127179605D01*
X127405915Y-128043690D01*
X127034825Y-128043690D01*
X127217547Y-127861287D01*
X127226310Y-127864085D01*
X128090395Y-127000000D01*
X127226310Y-126135915D01*
X127217048Y-126138872D01*
X127034805Y-125956310D01*
X127405915Y-125956310D01*
X128270000Y-126820395D01*
X129134085Y-125956310D01*
X129053858Y-125705047D01*
X128498633Y-125503650D01*
X127908601Y-125530059D01*
X127486142Y-125705047D01*
X127405915Y-125956310D01*
X127034805Y-125956310D01*
X126820994Y-125742126D01*
X126275527Y-125515628D01*
X125684904Y-125515112D01*
X125139043Y-125740658D01*
X124721046Y-126157926D01*
X124494548Y-126703393D01*
X124494032Y-127294016D01*
X92675454Y-127294016D01*
X92675968Y-126705984D01*
X92450422Y-126160123D01*
X92033154Y-125742126D01*
X91487687Y-125515628D01*
X90897064Y-125515112D01*
X90351203Y-125740658D01*
X89952453Y-126138713D01*
X89943690Y-126135915D01*
X89079605Y-127000000D01*
X88720395Y-127000000D01*
X87856310Y-126135915D01*
X87847048Y-126138872D01*
X87664805Y-125956310D01*
X88035915Y-125956310D01*
X88900000Y-126820395D01*
X89764085Y-125956310D01*
X89683858Y-125705047D01*
X89128633Y-125503650D01*
X88538601Y-125530059D01*
X88116142Y-125705047D01*
X88035915Y-125956310D01*
X87664805Y-125956310D01*
X87450994Y-125742126D01*
X86905527Y-125515628D01*
X86314904Y-125515112D01*
X85769043Y-125740658D01*
X85351046Y-126157926D01*
X85124548Y-126703393D01*
X85124032Y-127294016D01*
X83947000Y-127294016D01*
X83947000Y-122196661D01*
X84962758Y-122196661D01*
X85174990Y-122710303D01*
X85567630Y-123103629D01*
X86080900Y-123316757D01*
X86636661Y-123317242D01*
X87150303Y-123105010D01*
X87543629Y-122712370D01*
X87629949Y-122504488D01*
X87714990Y-122710303D01*
X88107630Y-123103629D01*
X88620900Y-123316757D01*
X89176661Y-123317242D01*
X89690303Y-123105010D01*
X89895457Y-122900213D01*
X90639392Y-122900213D01*
X90708857Y-123142397D01*
X91232302Y-123329144D01*
X91787368Y-123301362D01*
X92171143Y-123142397D01*
X92240608Y-122900213D01*
X91440000Y-122099605D01*
X90639392Y-122900213D01*
X89895457Y-122900213D01*
X90083629Y-122712370D01*
X90163395Y-122520273D01*
X90217603Y-122651143D01*
X90459787Y-122720608D01*
X91260395Y-121920000D01*
X91619605Y-121920000D01*
X92420213Y-122720608D01*
X92662397Y-122651143D01*
X92849144Y-122127698D01*
X92821362Y-121572632D01*
X92786293Y-121487968D01*
X99095000Y-121487968D01*
X99095000Y-122352032D01*
X99189009Y-122824646D01*
X99456723Y-123225309D01*
X99857386Y-123493023D01*
X100330000Y-123587032D01*
X100802614Y-123493023D01*
X101203277Y-123225309D01*
X101470991Y-122824646D01*
X101565000Y-122352032D01*
X101565000Y-121487968D01*
X101635000Y-121487968D01*
X101635000Y-122352032D01*
X101729009Y-122824646D01*
X101996723Y-123225309D01*
X102397386Y-123493023D01*
X102870000Y-123587032D01*
X103342614Y-123493023D01*
X103743277Y-123225309D01*
X104010991Y-122824646D01*
X104105000Y-122352032D01*
X104105000Y-121487968D01*
X104175000Y-121487968D01*
X104175000Y-122352032D01*
X104269009Y-122824646D01*
X104536723Y-123225309D01*
X104937386Y-123493023D01*
X105410000Y-123587032D01*
X105882614Y-123493023D01*
X106283277Y-123225309D01*
X106550991Y-122824646D01*
X106645000Y-122352032D01*
X106645000Y-121487968D01*
X106715000Y-121487968D01*
X106715000Y-122352032D01*
X106809009Y-122824646D01*
X107076723Y-123225309D01*
X107477386Y-123493023D01*
X107950000Y-123587032D01*
X108422614Y-123493023D01*
X108823277Y-123225309D01*
X109090991Y-122824646D01*
X109185000Y-122352032D01*
X109185000Y-121487968D01*
X109255000Y-121487968D01*
X109255000Y-122352032D01*
X109349009Y-122824646D01*
X109616723Y-123225309D01*
X110017386Y-123493023D01*
X110490000Y-123587032D01*
X110962614Y-123493023D01*
X111363277Y-123225309D01*
X111630991Y-122824646D01*
X111725000Y-122352032D01*
X111725000Y-121487968D01*
X111795000Y-121487968D01*
X111795000Y-122352032D01*
X111889009Y-122824646D01*
X112156723Y-123225309D01*
X112557386Y-123493023D01*
X113030000Y-123587032D01*
X113502614Y-123493023D01*
X113903277Y-123225309D01*
X114170991Y-122824646D01*
X114265000Y-122352032D01*
X114265000Y-121487968D01*
X114335000Y-121487968D01*
X114335000Y-122352032D01*
X114429009Y-122824646D01*
X114696723Y-123225309D01*
X115097386Y-123493023D01*
X115570000Y-123587032D01*
X116042614Y-123493023D01*
X116443277Y-123225309D01*
X116710991Y-122824646D01*
X116805000Y-122352032D01*
X116805000Y-121487968D01*
X116875000Y-121487968D01*
X116875000Y-122352032D01*
X116969009Y-122824646D01*
X117236723Y-123225309D01*
X117637386Y-123493023D01*
X118110000Y-123587032D01*
X118582614Y-123493023D01*
X118983277Y-123225309D01*
X119250991Y-122824646D01*
X119345000Y-122352032D01*
X119345000Y-121487968D01*
X119415000Y-121487968D01*
X119415000Y-122352032D01*
X119509009Y-122824646D01*
X119776723Y-123225309D01*
X120177386Y-123493023D01*
X120650000Y-123587032D01*
X121122614Y-123493023D01*
X121523277Y-123225309D01*
X121790991Y-122824646D01*
X121885000Y-122352032D01*
X121885000Y-122047000D01*
X121955000Y-122047000D01*
X121955000Y-122447000D01*
X122097610Y-122909947D01*
X122406526Y-123283080D01*
X122834719Y-123509592D01*
X122872391Y-123513462D01*
X123063000Y-123388731D01*
X123063000Y-122047000D01*
X123317000Y-122047000D01*
X123317000Y-123388731D01*
X123507609Y-123513462D01*
X123545281Y-123509592D01*
X123973474Y-123283080D01*
X124282390Y-122909947D01*
X124425000Y-122447000D01*
X124425000Y-122047000D01*
X123317000Y-122047000D01*
X123063000Y-122047000D01*
X121955000Y-122047000D01*
X121885000Y-122047000D01*
X121885000Y-121487968D01*
X121866110Y-121393000D01*
X121955000Y-121393000D01*
X121955000Y-121793000D01*
X123063000Y-121793000D01*
X123063000Y-120451269D01*
X123317000Y-120451269D01*
X123317000Y-121793000D01*
X124425000Y-121793000D01*
X124425000Y-121393000D01*
X124282390Y-120930053D01*
X123973474Y-120556920D01*
X123545281Y-120330408D01*
X123507609Y-120326538D01*
X123317000Y-120451269D01*
X123063000Y-120451269D01*
X122872391Y-120326538D01*
X122834719Y-120330408D01*
X122406526Y-120556920D01*
X122097610Y-120930053D01*
X121955000Y-121393000D01*
X121866110Y-121393000D01*
X121790991Y-121015354D01*
X121523277Y-120614691D01*
X121122614Y-120346977D01*
X120650000Y-120252968D01*
X120177386Y-120346977D01*
X119776723Y-120614691D01*
X119509009Y-121015354D01*
X119415000Y-121487968D01*
X119345000Y-121487968D01*
X119250991Y-121015354D01*
X118983277Y-120614691D01*
X118582614Y-120346977D01*
X118110000Y-120252968D01*
X117637386Y-120346977D01*
X117236723Y-120614691D01*
X116969009Y-121015354D01*
X116875000Y-121487968D01*
X116805000Y-121487968D01*
X116710991Y-121015354D01*
X116443277Y-120614691D01*
X116042614Y-120346977D01*
X115570000Y-120252968D01*
X115097386Y-120346977D01*
X114696723Y-120614691D01*
X114429009Y-121015354D01*
X114335000Y-121487968D01*
X114265000Y-121487968D01*
X114170991Y-121015354D01*
X113903277Y-120614691D01*
X113502614Y-120346977D01*
X113030000Y-120252968D01*
X112557386Y-120346977D01*
X112156723Y-120614691D01*
X111889009Y-121015354D01*
X111795000Y-121487968D01*
X111725000Y-121487968D01*
X111630991Y-121015354D01*
X111363277Y-120614691D01*
X110962614Y-120346977D01*
X110490000Y-120252968D01*
X110017386Y-120346977D01*
X109616723Y-120614691D01*
X109349009Y-121015354D01*
X109255000Y-121487968D01*
X109185000Y-121487968D01*
X109090991Y-121015354D01*
X108823277Y-120614691D01*
X108422614Y-120346977D01*
X107950000Y-120252968D01*
X107477386Y-120346977D01*
X107076723Y-120614691D01*
X106809009Y-121015354D01*
X106715000Y-121487968D01*
X106645000Y-121487968D01*
X106550991Y-121015354D01*
X106283277Y-120614691D01*
X105882614Y-120346977D01*
X105410000Y-120252968D01*
X104937386Y-120346977D01*
X104536723Y-120614691D01*
X104269009Y-121015354D01*
X104175000Y-121487968D01*
X104105000Y-121487968D01*
X104010991Y-121015354D01*
X103743277Y-120614691D01*
X103342614Y-120346977D01*
X102870000Y-120252968D01*
X102397386Y-120346977D01*
X101996723Y-120614691D01*
X101729009Y-121015354D01*
X101635000Y-121487968D01*
X101565000Y-121487968D01*
X101470991Y-121015354D01*
X101203277Y-120614691D01*
X100802614Y-120346977D01*
X100330000Y-120252968D01*
X99857386Y-120346977D01*
X99456723Y-120614691D01*
X99189009Y-121015354D01*
X99095000Y-121487968D01*
X92786293Y-121487968D01*
X92662397Y-121188857D01*
X92420213Y-121119392D01*
X91619605Y-121920000D01*
X91260395Y-121920000D01*
X90459787Y-121119392D01*
X90217603Y-121188857D01*
X90167491Y-121329318D01*
X90085010Y-121129697D01*
X89895432Y-120939787D01*
X90639392Y-120939787D01*
X91440000Y-121740395D01*
X92240608Y-120939787D01*
X92171143Y-120697603D01*
X91647698Y-120510856D01*
X91092632Y-120538638D01*
X90708857Y-120697603D01*
X90639392Y-120939787D01*
X89895432Y-120939787D01*
X89692370Y-120736371D01*
X89179100Y-120523243D01*
X88623339Y-120522758D01*
X88109697Y-120734990D01*
X87716371Y-121127630D01*
X87630051Y-121335512D01*
X87545010Y-121129697D01*
X87152370Y-120736371D01*
X86639100Y-120523243D01*
X86083339Y-120522758D01*
X85569697Y-120734990D01*
X85176371Y-121127630D01*
X84963243Y-121640900D01*
X84962758Y-122196661D01*
X83947000Y-122196661D01*
X83947000Y-118433694D01*
X85995226Y-118433694D01*
X86243538Y-119034655D01*
X86702927Y-119494846D01*
X87303453Y-119744206D01*
X87953694Y-119744774D01*
X88554655Y-119496462D01*
X89014846Y-119037073D01*
X89264206Y-118436547D01*
X89264208Y-118433694D01*
X89805226Y-118433694D01*
X90053538Y-119034655D01*
X90512927Y-119494846D01*
X91113453Y-119744206D01*
X91763694Y-119744774D01*
X92364655Y-119496462D01*
X92824846Y-119037073D01*
X93074206Y-118436547D01*
X93074774Y-117786306D01*
X92826462Y-117185345D01*
X92367073Y-116725154D01*
X91766547Y-116475794D01*
X91116306Y-116475226D01*
X90515345Y-116723538D01*
X90055154Y-117182927D01*
X89805794Y-117783453D01*
X89805226Y-118433694D01*
X89264208Y-118433694D01*
X89264774Y-117786306D01*
X89016462Y-117185345D01*
X88557073Y-116725154D01*
X87956547Y-116475794D01*
X87306306Y-116475226D01*
X86705345Y-116723538D01*
X86245154Y-117182927D01*
X85995794Y-117783453D01*
X85995226Y-118433694D01*
X83947000Y-118433694D01*
X83947000Y-108273694D01*
X85995226Y-108273694D01*
X86243538Y-108874655D01*
X86702927Y-109334846D01*
X87303453Y-109584206D01*
X87953694Y-109584774D01*
X88554655Y-109336462D01*
X89014846Y-108877073D01*
X89264206Y-108276547D01*
X89264208Y-108273694D01*
X89805226Y-108273694D01*
X90053538Y-108874655D01*
X90512927Y-109334846D01*
X91113453Y-109584206D01*
X91763694Y-109584774D01*
X92364655Y-109336462D01*
X92824846Y-108877073D01*
X93074206Y-108276547D01*
X93074774Y-107626306D01*
X92826462Y-107025345D01*
X92367073Y-106565154D01*
X91766547Y-106315794D01*
X91116306Y-106315226D01*
X90515345Y-106563538D01*
X90055154Y-107022927D01*
X89805794Y-107623453D01*
X89805226Y-108273694D01*
X89264208Y-108273694D01*
X89264774Y-107626306D01*
X89016462Y-107025345D01*
X88557073Y-106565154D01*
X87956547Y-106315794D01*
X87306306Y-106315226D01*
X86705345Y-106563538D01*
X86245154Y-107022927D01*
X85995794Y-107623453D01*
X85995226Y-108273694D01*
X83947000Y-108273694D01*
X83947000Y-105777722D01*
X84074000Y-105803440D01*
X86106000Y-105803440D01*
X86341317Y-105759162D01*
X86557441Y-105620090D01*
X86702431Y-105407890D01*
X86753440Y-105156000D01*
X86753440Y-103190000D01*
X88522560Y-103190000D01*
X88522560Y-105090000D01*
X88566838Y-105325317D01*
X88705910Y-105541441D01*
X88918110Y-105686431D01*
X89170000Y-105737440D01*
X91170000Y-105737440D01*
X91405317Y-105693162D01*
X91621441Y-105554090D01*
X91766431Y-105341890D01*
X91817440Y-105090000D01*
X91817440Y-103190000D01*
X91773162Y-102954683D01*
X91634090Y-102738559D01*
X91421890Y-102593569D01*
X91418808Y-102592945D01*
X91512914Y-102499003D01*
X91754724Y-101916659D01*
X91755275Y-101286107D01*
X91706461Y-101167968D01*
X99095000Y-101167968D01*
X99095000Y-102032032D01*
X99189009Y-102504646D01*
X99456723Y-102905309D01*
X99857386Y-103173023D01*
X100330000Y-103267032D01*
X100802614Y-103173023D01*
X101203277Y-102905309D01*
X101470991Y-102504646D01*
X101565000Y-102032032D01*
X101565000Y-101167968D01*
X101635000Y-101167968D01*
X101635000Y-102032032D01*
X101729009Y-102504646D01*
X101996723Y-102905309D01*
X102397386Y-103173023D01*
X102870000Y-103267032D01*
X103342614Y-103173023D01*
X103743277Y-102905309D01*
X104010991Y-102504646D01*
X104105000Y-102032032D01*
X104105000Y-101167968D01*
X104175000Y-101167968D01*
X104175000Y-102032032D01*
X104269009Y-102504646D01*
X104536723Y-102905309D01*
X104937386Y-103173023D01*
X105410000Y-103267032D01*
X105882614Y-103173023D01*
X106283277Y-102905309D01*
X106550991Y-102504646D01*
X106645000Y-102032032D01*
X106645000Y-101167968D01*
X106715000Y-101167968D01*
X106715000Y-102032032D01*
X106809009Y-102504646D01*
X107076723Y-102905309D01*
X107477386Y-103173023D01*
X107950000Y-103267032D01*
X108422614Y-103173023D01*
X108823277Y-102905309D01*
X109090991Y-102504646D01*
X109185000Y-102032032D01*
X109185000Y-101167968D01*
X109255000Y-101167968D01*
X109255000Y-102032032D01*
X109349009Y-102504646D01*
X109616723Y-102905309D01*
X110017386Y-103173023D01*
X110490000Y-103267032D01*
X110962614Y-103173023D01*
X111363277Y-102905309D01*
X111630991Y-102504646D01*
X111725000Y-102032032D01*
X111725000Y-101167968D01*
X111795000Y-101167968D01*
X111795000Y-102032032D01*
X111889009Y-102504646D01*
X112156723Y-102905309D01*
X112557386Y-103173023D01*
X113030000Y-103267032D01*
X113502614Y-103173023D01*
X113903277Y-102905309D01*
X114170991Y-102504646D01*
X114265000Y-102032032D01*
X114265000Y-101167968D01*
X114335000Y-101167968D01*
X114335000Y-102032032D01*
X114429009Y-102504646D01*
X114696723Y-102905309D01*
X115097386Y-103173023D01*
X115570000Y-103267032D01*
X116042614Y-103173023D01*
X116443277Y-102905309D01*
X116710991Y-102504646D01*
X116805000Y-102032032D01*
X116805000Y-101167968D01*
X116875000Y-101167968D01*
X116875000Y-102032032D01*
X116969009Y-102504646D01*
X117236723Y-102905309D01*
X117637386Y-103173023D01*
X118110000Y-103267032D01*
X118582614Y-103173023D01*
X118983277Y-102905309D01*
X119250991Y-102504646D01*
X119345000Y-102032032D01*
X119345000Y-101167968D01*
X119415000Y-101167968D01*
X119415000Y-102032032D01*
X119509009Y-102504646D01*
X119776723Y-102905309D01*
X120177386Y-103173023D01*
X120650000Y-103267032D01*
X121122614Y-103173023D01*
X121523277Y-102905309D01*
X121790991Y-102504646D01*
X121885000Y-102032032D01*
X121885000Y-101727000D01*
X121955000Y-101727000D01*
X121955000Y-102127000D01*
X122097610Y-102589947D01*
X122406526Y-102963080D01*
X122834719Y-103189592D01*
X122872391Y-103193462D01*
X123063000Y-103068731D01*
X123063000Y-101727000D01*
X123317000Y-101727000D01*
X123317000Y-103068731D01*
X123507609Y-103193462D01*
X123545281Y-103189592D01*
X123973474Y-102963080D01*
X124282390Y-102589947D01*
X124425000Y-102127000D01*
X124425000Y-101727000D01*
X123317000Y-101727000D01*
X123063000Y-101727000D01*
X121955000Y-101727000D01*
X121885000Y-101727000D01*
X121885000Y-101167968D01*
X121866110Y-101073000D01*
X121955000Y-101073000D01*
X121955000Y-101473000D01*
X123063000Y-101473000D01*
X123063000Y-100131269D01*
X123317000Y-100131269D01*
X123317000Y-101473000D01*
X124425000Y-101473000D01*
X124425000Y-101073000D01*
X124282390Y-100610053D01*
X123973474Y-100236920D01*
X123545281Y-100010408D01*
X123507609Y-100006538D01*
X123317000Y-100131269D01*
X123063000Y-100131269D01*
X122872391Y-100006538D01*
X122834719Y-100010408D01*
X122406526Y-100236920D01*
X122097610Y-100610053D01*
X121955000Y-101073000D01*
X121866110Y-101073000D01*
X121790991Y-100695354D01*
X121523277Y-100294691D01*
X121122614Y-100026977D01*
X120650000Y-99932968D01*
X120177386Y-100026977D01*
X119776723Y-100294691D01*
X119509009Y-100695354D01*
X119415000Y-101167968D01*
X119345000Y-101167968D01*
X119250991Y-100695354D01*
X118983277Y-100294691D01*
X118582614Y-100026977D01*
X118110000Y-99932968D01*
X117637386Y-100026977D01*
X117236723Y-100294691D01*
X116969009Y-100695354D01*
X116875000Y-101167968D01*
X116805000Y-101167968D01*
X116710991Y-100695354D01*
X116443277Y-100294691D01*
X116042614Y-100026977D01*
X115570000Y-99932968D01*
X115097386Y-100026977D01*
X114696723Y-100294691D01*
X114429009Y-100695354D01*
X114335000Y-101167968D01*
X114265000Y-101167968D01*
X114170991Y-100695354D01*
X113903277Y-100294691D01*
X113502614Y-100026977D01*
X113030000Y-99932968D01*
X112557386Y-100026977D01*
X112156723Y-100294691D01*
X111889009Y-100695354D01*
X111795000Y-101167968D01*
X111725000Y-101167968D01*
X111630991Y-100695354D01*
X111363277Y-100294691D01*
X110962614Y-100026977D01*
X110490000Y-99932968D01*
X110017386Y-100026977D01*
X109616723Y-100294691D01*
X109349009Y-100695354D01*
X109255000Y-101167968D01*
X109185000Y-101167968D01*
X109090991Y-100695354D01*
X108823277Y-100294691D01*
X108422614Y-100026977D01*
X107950000Y-99932968D01*
X107477386Y-100026977D01*
X107076723Y-100294691D01*
X106809009Y-100695354D01*
X106715000Y-101167968D01*
X106645000Y-101167968D01*
X106550991Y-100695354D01*
X106283277Y-100294691D01*
X105882614Y-100026977D01*
X105410000Y-99932968D01*
X104937386Y-100026977D01*
X104536723Y-100294691D01*
X104269009Y-100695354D01*
X104175000Y-101167968D01*
X104105000Y-101167968D01*
X104010991Y-100695354D01*
X103743277Y-100294691D01*
X103342614Y-100026977D01*
X102870000Y-99932968D01*
X102397386Y-100026977D01*
X101996723Y-100294691D01*
X101729009Y-100695354D01*
X101635000Y-101167968D01*
X101565000Y-101167968D01*
X101470991Y-100695354D01*
X101203277Y-100294691D01*
X100802614Y-100026977D01*
X100330000Y-99932968D01*
X99857386Y-100026977D01*
X99456723Y-100294691D01*
X99189009Y-100695354D01*
X99095000Y-101167968D01*
X91706461Y-101167968D01*
X91514481Y-100703343D01*
X91069003Y-100257086D01*
X90486659Y-100015276D01*
X89856107Y-100014725D01*
X89273343Y-100255519D01*
X88827086Y-100700997D01*
X88585276Y-101283341D01*
X88584725Y-101913893D01*
X88825519Y-102496657D01*
X88923029Y-102594337D01*
X88718559Y-102725910D01*
X88573569Y-102938110D01*
X88522560Y-103190000D01*
X86753440Y-103190000D01*
X86753440Y-103124000D01*
X86709162Y-102888683D01*
X86570090Y-102672559D01*
X86423128Y-102572144D01*
X86427188Y-102568379D01*
X86695983Y-101982946D01*
X86577367Y-101727000D01*
X85217000Y-101727000D01*
X85217000Y-101747000D01*
X84963000Y-101747000D01*
X84963000Y-101727000D01*
X84943000Y-101727000D01*
X84943000Y-101473000D01*
X84963000Y-101473000D01*
X84963000Y-100113164D01*
X85217000Y-100113164D01*
X85217000Y-101473000D01*
X86577367Y-101473000D01*
X86695983Y-101217054D01*
X86427188Y-100631621D01*
X85954818Y-100193615D01*
X85472944Y-99994025D01*
X85217000Y-100113164D01*
X84963000Y-100113164D01*
X84707056Y-99994025D01*
X84225182Y-100193615D01*
X83947000Y-100451560D01*
X83947000Y-99187000D01*
X131953000Y-99187000D01*
X131953000Y-126480985D01*
X131953000Y-126480985D01*
G37*
X131953000Y-126480985D02*
X131820422Y-126160123D01*
X131403154Y-125742126D01*
X130857687Y-125515628D01*
X130267064Y-125515112D01*
X129721203Y-125740658D01*
X129322453Y-126138713D01*
X129313690Y-126135915D01*
X128449605Y-127000000D01*
X129313690Y-127864085D01*
X129322952Y-127861128D01*
X129719006Y-128257874D01*
X130264473Y-128484372D01*
X130855096Y-128484888D01*
X131400957Y-128259342D01*
X131818954Y-127842074D01*
X131953000Y-127519256D01*
X131953000Y-128778000D01*
X83947000Y-128778000D01*
X83947000Y-127294016D01*
X85124032Y-127294016D01*
X85349578Y-127839877D01*
X85766846Y-128257874D01*
X86312313Y-128484372D01*
X86902936Y-128484888D01*
X87448797Y-128259342D01*
X87664825Y-128043690D01*
X88035915Y-128043690D01*
X88116142Y-128294953D01*
X88671367Y-128496350D01*
X89261399Y-128469941D01*
X89683858Y-128294953D01*
X89764085Y-128043690D01*
X88900000Y-127179605D01*
X88035915Y-128043690D01*
X87664825Y-128043690D01*
X87847547Y-127861287D01*
X87856310Y-127864085D01*
X88720395Y-127000000D01*
X89079605Y-127000000D01*
X89943690Y-127864085D01*
X89952952Y-127861128D01*
X90349006Y-128257874D01*
X90894473Y-128484372D01*
X91485096Y-128484888D01*
X92030957Y-128259342D01*
X92448954Y-127842074D01*
X92675452Y-127296607D01*
X92675454Y-127294016D01*
X124494032Y-127294016D01*
X124719578Y-127839877D01*
X125136846Y-128257874D01*
X125682313Y-128484372D01*
X126272936Y-128484888D01*
X126818797Y-128259342D01*
X127034825Y-128043690D01*
X127405915Y-128043690D01*
X127486142Y-128294953D01*
X128041367Y-128496350D01*
X128631399Y-128469941D01*
X129053858Y-128294953D01*
X129134085Y-128043690D01*
X128270000Y-127179605D01*
X127405915Y-128043690D01*
X127034825Y-128043690D01*
X127217547Y-127861287D01*
X127226310Y-127864085D01*
X128090395Y-127000000D01*
X127226310Y-126135915D01*
X127217048Y-126138872D01*
X127034805Y-125956310D01*
X127405915Y-125956310D01*
X128270000Y-126820395D01*
X129134085Y-125956310D01*
X129053858Y-125705047D01*
X128498633Y-125503650D01*
X127908601Y-125530059D01*
X127486142Y-125705047D01*
X127405915Y-125956310D01*
X127034805Y-125956310D01*
X126820994Y-125742126D01*
X126275527Y-125515628D01*
X125684904Y-125515112D01*
X125139043Y-125740658D01*
X124721046Y-126157926D01*
X124494548Y-126703393D01*
X124494032Y-127294016D01*
X92675454Y-127294016D01*
X92675968Y-126705984D01*
X92450422Y-126160123D01*
X92033154Y-125742126D01*
X91487687Y-125515628D01*
X90897064Y-125515112D01*
X90351203Y-125740658D01*
X89952453Y-126138713D01*
X89943690Y-126135915D01*
X89079605Y-127000000D01*
X88720395Y-127000000D01*
X87856310Y-126135915D01*
X87847048Y-126138872D01*
X87664805Y-125956310D01*
X88035915Y-125956310D01*
X88900000Y-126820395D01*
X89764085Y-125956310D01*
X89683858Y-125705047D01*
X89128633Y-125503650D01*
X88538601Y-125530059D01*
X88116142Y-125705047D01*
X88035915Y-125956310D01*
X87664805Y-125956310D01*
X87450994Y-125742126D01*
X86905527Y-125515628D01*
X86314904Y-125515112D01*
X85769043Y-125740658D01*
X85351046Y-126157926D01*
X85124548Y-126703393D01*
X85124032Y-127294016D01*
X83947000Y-127294016D01*
X83947000Y-122196661D01*
X84962758Y-122196661D01*
X85174990Y-122710303D01*
X85567630Y-123103629D01*
X86080900Y-123316757D01*
X86636661Y-123317242D01*
X87150303Y-123105010D01*
X87543629Y-122712370D01*
X87629949Y-122504488D01*
X87714990Y-122710303D01*
X88107630Y-123103629D01*
X88620900Y-123316757D01*
X89176661Y-123317242D01*
X89690303Y-123105010D01*
X89895457Y-122900213D01*
X90639392Y-122900213D01*
X90708857Y-123142397D01*
X91232302Y-123329144D01*
X91787368Y-123301362D01*
X92171143Y-123142397D01*
X92240608Y-122900213D01*
X91440000Y-122099605D01*
X90639392Y-122900213D01*
X89895457Y-122900213D01*
X90083629Y-122712370D01*
X90163395Y-122520273D01*
X90217603Y-122651143D01*
X90459787Y-122720608D01*
X91260395Y-121920000D01*
X91619605Y-121920000D01*
X92420213Y-122720608D01*
X92662397Y-122651143D01*
X92849144Y-122127698D01*
X92821362Y-121572632D01*
X92786293Y-121487968D01*
X99095000Y-121487968D01*
X99095000Y-122352032D01*
X99189009Y-122824646D01*
X99456723Y-123225309D01*
X99857386Y-123493023D01*
X100330000Y-123587032D01*
X100802614Y-123493023D01*
X101203277Y-123225309D01*
X101470991Y-122824646D01*
X101565000Y-122352032D01*
X101565000Y-121487968D01*
X101635000Y-121487968D01*
X101635000Y-122352032D01*
X101729009Y-122824646D01*
X101996723Y-123225309D01*
X102397386Y-123493023D01*
X102870000Y-123587032D01*
X103342614Y-123493023D01*
X103743277Y-123225309D01*
X104010991Y-122824646D01*
X104105000Y-122352032D01*
X104105000Y-121487968D01*
X104175000Y-121487968D01*
X104175000Y-122352032D01*
X104269009Y-122824646D01*
X104536723Y-123225309D01*
X104937386Y-123493023D01*
X105410000Y-123587032D01*
X105882614Y-123493023D01*
X106283277Y-123225309D01*
X106550991Y-122824646D01*
X106645000Y-122352032D01*
X106645000Y-121487968D01*
X106715000Y-121487968D01*
X106715000Y-122352032D01*
X106809009Y-122824646D01*
X107076723Y-123225309D01*
X107477386Y-123493023D01*
X107950000Y-123587032D01*
X108422614Y-123493023D01*
X108823277Y-123225309D01*
X109090991Y-122824646D01*
X109185000Y-122352032D01*
X109185000Y-121487968D01*
X109255000Y-121487968D01*
X109255000Y-122352032D01*
X109349009Y-122824646D01*
X109616723Y-123225309D01*
X110017386Y-123493023D01*
X110490000Y-123587032D01*
X110962614Y-123493023D01*
X111363277Y-123225309D01*
X111630991Y-122824646D01*
X111725000Y-122352032D01*
X111725000Y-121487968D01*
X111795000Y-121487968D01*
X111795000Y-122352032D01*
X111889009Y-122824646D01*
X112156723Y-123225309D01*
X112557386Y-123493023D01*
X113030000Y-123587032D01*
X113502614Y-123493023D01*
X113903277Y-123225309D01*
X114170991Y-122824646D01*
X114265000Y-122352032D01*
X114265000Y-121487968D01*
X114335000Y-121487968D01*
X114335000Y-122352032D01*
X114429009Y-122824646D01*
X114696723Y-123225309D01*
X115097386Y-123493023D01*
X115570000Y-123587032D01*
X116042614Y-123493023D01*
X116443277Y-123225309D01*
X116710991Y-122824646D01*
X116805000Y-122352032D01*
X116805000Y-121487968D01*
X116875000Y-121487968D01*
X116875000Y-122352032D01*
X116969009Y-122824646D01*
X117236723Y-123225309D01*
X117637386Y-123493023D01*
X118110000Y-123587032D01*
X118582614Y-123493023D01*
X118983277Y-123225309D01*
X119250991Y-122824646D01*
X119345000Y-122352032D01*
X119345000Y-121487968D01*
X119415000Y-121487968D01*
X119415000Y-122352032D01*
X119509009Y-122824646D01*
X119776723Y-123225309D01*
X120177386Y-123493023D01*
X120650000Y-123587032D01*
X121122614Y-123493023D01*
X121523277Y-123225309D01*
X121790991Y-122824646D01*
X121885000Y-122352032D01*
X121885000Y-122047000D01*
X121955000Y-122047000D01*
X121955000Y-122447000D01*
X122097610Y-122909947D01*
X122406526Y-123283080D01*
X122834719Y-123509592D01*
X122872391Y-123513462D01*
X123063000Y-123388731D01*
X123063000Y-122047000D01*
X123317000Y-122047000D01*
X123317000Y-123388731D01*
X123507609Y-123513462D01*
X123545281Y-123509592D01*
X123973474Y-123283080D01*
X124282390Y-122909947D01*
X124425000Y-122447000D01*
X124425000Y-122047000D01*
X123317000Y-122047000D01*
X123063000Y-122047000D01*
X121955000Y-122047000D01*
X121885000Y-122047000D01*
X121885000Y-121487968D01*
X121866110Y-121393000D01*
X121955000Y-121393000D01*
X121955000Y-121793000D01*
X123063000Y-121793000D01*
X123063000Y-120451269D01*
X123317000Y-120451269D01*
X123317000Y-121793000D01*
X124425000Y-121793000D01*
X124425000Y-121393000D01*
X124282390Y-120930053D01*
X123973474Y-120556920D01*
X123545281Y-120330408D01*
X123507609Y-120326538D01*
X123317000Y-120451269D01*
X123063000Y-120451269D01*
X122872391Y-120326538D01*
X122834719Y-120330408D01*
X122406526Y-120556920D01*
X122097610Y-120930053D01*
X121955000Y-121393000D01*
X121866110Y-121393000D01*
X121790991Y-121015354D01*
X121523277Y-120614691D01*
X121122614Y-120346977D01*
X120650000Y-120252968D01*
X120177386Y-120346977D01*
X119776723Y-120614691D01*
X119509009Y-121015354D01*
X119415000Y-121487968D01*
X119345000Y-121487968D01*
X119250991Y-121015354D01*
X118983277Y-120614691D01*
X118582614Y-120346977D01*
X118110000Y-120252968D01*
X117637386Y-120346977D01*
X117236723Y-120614691D01*
X116969009Y-121015354D01*
X116875000Y-121487968D01*
X116805000Y-121487968D01*
X116710991Y-121015354D01*
X116443277Y-120614691D01*
X116042614Y-120346977D01*
X115570000Y-120252968D01*
X115097386Y-120346977D01*
X114696723Y-120614691D01*
X114429009Y-121015354D01*
X114335000Y-121487968D01*
X114265000Y-121487968D01*
X114170991Y-121015354D01*
X113903277Y-120614691D01*
X113502614Y-120346977D01*
X113030000Y-120252968D01*
X112557386Y-120346977D01*
X112156723Y-120614691D01*
X111889009Y-121015354D01*
X111795000Y-121487968D01*
X111725000Y-121487968D01*
X111630991Y-121015354D01*
X111363277Y-120614691D01*
X110962614Y-120346977D01*
X110490000Y-120252968D01*
X110017386Y-120346977D01*
X109616723Y-120614691D01*
X109349009Y-121015354D01*
X109255000Y-121487968D01*
X109185000Y-121487968D01*
X109090991Y-121015354D01*
X108823277Y-120614691D01*
X108422614Y-120346977D01*
X107950000Y-120252968D01*
X107477386Y-120346977D01*
X107076723Y-120614691D01*
X106809009Y-121015354D01*
X106715000Y-121487968D01*
X106645000Y-121487968D01*
X106550991Y-121015354D01*
X106283277Y-120614691D01*
X105882614Y-120346977D01*
X105410000Y-120252968D01*
X104937386Y-120346977D01*
X104536723Y-120614691D01*
X104269009Y-121015354D01*
X104175000Y-121487968D01*
X104105000Y-121487968D01*
X104010991Y-121015354D01*
X103743277Y-120614691D01*
X103342614Y-120346977D01*
X102870000Y-120252968D01*
X102397386Y-120346977D01*
X101996723Y-120614691D01*
X101729009Y-121015354D01*
X101635000Y-121487968D01*
X101565000Y-121487968D01*
X101470991Y-121015354D01*
X101203277Y-120614691D01*
X100802614Y-120346977D01*
X100330000Y-120252968D01*
X99857386Y-120346977D01*
X99456723Y-120614691D01*
X99189009Y-121015354D01*
X99095000Y-121487968D01*
X92786293Y-121487968D01*
X92662397Y-121188857D01*
X92420213Y-121119392D01*
X91619605Y-121920000D01*
X91260395Y-121920000D01*
X90459787Y-121119392D01*
X90217603Y-121188857D01*
X90167491Y-121329318D01*
X90085010Y-121129697D01*
X89895432Y-120939787D01*
X90639392Y-120939787D01*
X91440000Y-121740395D01*
X92240608Y-120939787D01*
X92171143Y-120697603D01*
X91647698Y-120510856D01*
X91092632Y-120538638D01*
X90708857Y-120697603D01*
X90639392Y-120939787D01*
X89895432Y-120939787D01*
X89692370Y-120736371D01*
X89179100Y-120523243D01*
X88623339Y-120522758D01*
X88109697Y-120734990D01*
X87716371Y-121127630D01*
X87630051Y-121335512D01*
X87545010Y-121129697D01*
X87152370Y-120736371D01*
X86639100Y-120523243D01*
X86083339Y-120522758D01*
X85569697Y-120734990D01*
X85176371Y-121127630D01*
X84963243Y-121640900D01*
X84962758Y-122196661D01*
X83947000Y-122196661D01*
X83947000Y-118433694D01*
X85995226Y-118433694D01*
X86243538Y-119034655D01*
X86702927Y-119494846D01*
X87303453Y-119744206D01*
X87953694Y-119744774D01*
X88554655Y-119496462D01*
X89014846Y-119037073D01*
X89264206Y-118436547D01*
X89264208Y-118433694D01*
X89805226Y-118433694D01*
X90053538Y-119034655D01*
X90512927Y-119494846D01*
X91113453Y-119744206D01*
X91763694Y-119744774D01*
X92364655Y-119496462D01*
X92824846Y-119037073D01*
X93074206Y-118436547D01*
X93074774Y-117786306D01*
X92826462Y-117185345D01*
X92367073Y-116725154D01*
X91766547Y-116475794D01*
X91116306Y-116475226D01*
X90515345Y-116723538D01*
X90055154Y-117182927D01*
X89805794Y-117783453D01*
X89805226Y-118433694D01*
X89264208Y-118433694D01*
X89264774Y-117786306D01*
X89016462Y-117185345D01*
X88557073Y-116725154D01*
X87956547Y-116475794D01*
X87306306Y-116475226D01*
X86705345Y-116723538D01*
X86245154Y-117182927D01*
X85995794Y-117783453D01*
X85995226Y-118433694D01*
X83947000Y-118433694D01*
X83947000Y-108273694D01*
X85995226Y-108273694D01*
X86243538Y-108874655D01*
X86702927Y-109334846D01*
X87303453Y-109584206D01*
X87953694Y-109584774D01*
X88554655Y-109336462D01*
X89014846Y-108877073D01*
X89264206Y-108276547D01*
X89264208Y-108273694D01*
X89805226Y-108273694D01*
X90053538Y-108874655D01*
X90512927Y-109334846D01*
X91113453Y-109584206D01*
X91763694Y-109584774D01*
X92364655Y-109336462D01*
X92824846Y-108877073D01*
X93074206Y-108276547D01*
X93074774Y-107626306D01*
X92826462Y-107025345D01*
X92367073Y-106565154D01*
X91766547Y-106315794D01*
X91116306Y-106315226D01*
X90515345Y-106563538D01*
X90055154Y-107022927D01*
X89805794Y-107623453D01*
X89805226Y-108273694D01*
X89264208Y-108273694D01*
X89264774Y-107626306D01*
X89016462Y-107025345D01*
X88557073Y-106565154D01*
X87956547Y-106315794D01*
X87306306Y-106315226D01*
X86705345Y-106563538D01*
X86245154Y-107022927D01*
X85995794Y-107623453D01*
X85995226Y-108273694D01*
X83947000Y-108273694D01*
X83947000Y-105777722D01*
X84074000Y-105803440D01*
X86106000Y-105803440D01*
X86341317Y-105759162D01*
X86557441Y-105620090D01*
X86702431Y-105407890D01*
X86753440Y-105156000D01*
X86753440Y-103190000D01*
X88522560Y-103190000D01*
X88522560Y-105090000D01*
X88566838Y-105325317D01*
X88705910Y-105541441D01*
X88918110Y-105686431D01*
X89170000Y-105737440D01*
X91170000Y-105737440D01*
X91405317Y-105693162D01*
X91621441Y-105554090D01*
X91766431Y-105341890D01*
X91817440Y-105090000D01*
X91817440Y-103190000D01*
X91773162Y-102954683D01*
X91634090Y-102738559D01*
X91421890Y-102593569D01*
X91418808Y-102592945D01*
X91512914Y-102499003D01*
X91754724Y-101916659D01*
X91755275Y-101286107D01*
X91706461Y-101167968D01*
X99095000Y-101167968D01*
X99095000Y-102032032D01*
X99189009Y-102504646D01*
X99456723Y-102905309D01*
X99857386Y-103173023D01*
X100330000Y-103267032D01*
X100802614Y-103173023D01*
X101203277Y-102905309D01*
X101470991Y-102504646D01*
X101565000Y-102032032D01*
X101565000Y-101167968D01*
X101635000Y-101167968D01*
X101635000Y-102032032D01*
X101729009Y-102504646D01*
X101996723Y-102905309D01*
X102397386Y-103173023D01*
X102870000Y-103267032D01*
X103342614Y-103173023D01*
X103743277Y-102905309D01*
X104010991Y-102504646D01*
X104105000Y-102032032D01*
X104105000Y-101167968D01*
X104175000Y-101167968D01*
X104175000Y-102032032D01*
X104269009Y-102504646D01*
X104536723Y-102905309D01*
X104937386Y-103173023D01*
X105410000Y-103267032D01*
X105882614Y-103173023D01*
X106283277Y-102905309D01*
X106550991Y-102504646D01*
X106645000Y-102032032D01*
X106645000Y-101167968D01*
X106715000Y-101167968D01*
X106715000Y-102032032D01*
X106809009Y-102504646D01*
X107076723Y-102905309D01*
X107477386Y-103173023D01*
X107950000Y-103267032D01*
X108422614Y-103173023D01*
X108823277Y-102905309D01*
X109090991Y-102504646D01*
X109185000Y-102032032D01*
X109185000Y-101167968D01*
X109255000Y-101167968D01*
X109255000Y-102032032D01*
X109349009Y-102504646D01*
X109616723Y-102905309D01*
X110017386Y-103173023D01*
X110490000Y-103267032D01*
X110962614Y-103173023D01*
X111363277Y-102905309D01*
X111630991Y-102504646D01*
X111725000Y-102032032D01*
X111725000Y-101167968D01*
X111795000Y-101167968D01*
X111795000Y-102032032D01*
X111889009Y-102504646D01*
X112156723Y-102905309D01*
X112557386Y-103173023D01*
X113030000Y-103267032D01*
X113502614Y-103173023D01*
X113903277Y-102905309D01*
X114170991Y-102504646D01*
X114265000Y-102032032D01*
X114265000Y-101167968D01*
X114335000Y-101167968D01*
X114335000Y-102032032D01*
X114429009Y-102504646D01*
X114696723Y-102905309D01*
X115097386Y-103173023D01*
X115570000Y-103267032D01*
X116042614Y-103173023D01*
X116443277Y-102905309D01*
X116710991Y-102504646D01*
X116805000Y-102032032D01*
X116805000Y-101167968D01*
X116875000Y-101167968D01*
X116875000Y-102032032D01*
X116969009Y-102504646D01*
X117236723Y-102905309D01*
X117637386Y-103173023D01*
X118110000Y-103267032D01*
X118582614Y-103173023D01*
X118983277Y-102905309D01*
X119250991Y-102504646D01*
X119345000Y-102032032D01*
X119345000Y-101167968D01*
X119415000Y-101167968D01*
X119415000Y-102032032D01*
X119509009Y-102504646D01*
X119776723Y-102905309D01*
X120177386Y-103173023D01*
X120650000Y-103267032D01*
X121122614Y-103173023D01*
X121523277Y-102905309D01*
X121790991Y-102504646D01*
X121885000Y-102032032D01*
X121885000Y-101727000D01*
X121955000Y-101727000D01*
X121955000Y-102127000D01*
X122097610Y-102589947D01*
X122406526Y-102963080D01*
X122834719Y-103189592D01*
X122872391Y-103193462D01*
X123063000Y-103068731D01*
X123063000Y-101727000D01*
X123317000Y-101727000D01*
X123317000Y-103068731D01*
X123507609Y-103193462D01*
X123545281Y-103189592D01*
X123973474Y-102963080D01*
X124282390Y-102589947D01*
X124425000Y-102127000D01*
X124425000Y-101727000D01*
X123317000Y-101727000D01*
X123063000Y-101727000D01*
X121955000Y-101727000D01*
X121885000Y-101727000D01*
X121885000Y-101167968D01*
X121866110Y-101073000D01*
X121955000Y-101073000D01*
X121955000Y-101473000D01*
X123063000Y-101473000D01*
X123063000Y-100131269D01*
X123317000Y-100131269D01*
X123317000Y-101473000D01*
X124425000Y-101473000D01*
X124425000Y-101073000D01*
X124282390Y-100610053D01*
X123973474Y-100236920D01*
X123545281Y-100010408D01*
X123507609Y-100006538D01*
X123317000Y-100131269D01*
X123063000Y-100131269D01*
X122872391Y-100006538D01*
X122834719Y-100010408D01*
X122406526Y-100236920D01*
X122097610Y-100610053D01*
X121955000Y-101073000D01*
X121866110Y-101073000D01*
X121790991Y-100695354D01*
X121523277Y-100294691D01*
X121122614Y-100026977D01*
X120650000Y-99932968D01*
X120177386Y-100026977D01*
X119776723Y-100294691D01*
X119509009Y-100695354D01*
X119415000Y-101167968D01*
X119345000Y-101167968D01*
X119250991Y-100695354D01*
X118983277Y-100294691D01*
X118582614Y-100026977D01*
X118110000Y-99932968D01*
X117637386Y-100026977D01*
X117236723Y-100294691D01*
X116969009Y-100695354D01*
X116875000Y-101167968D01*
X116805000Y-101167968D01*
X116710991Y-100695354D01*
X116443277Y-100294691D01*
X116042614Y-100026977D01*
X115570000Y-99932968D01*
X115097386Y-100026977D01*
X114696723Y-100294691D01*
X114429009Y-100695354D01*
X114335000Y-101167968D01*
X114265000Y-101167968D01*
X114170991Y-100695354D01*
X113903277Y-100294691D01*
X113502614Y-100026977D01*
X113030000Y-99932968D01*
X112557386Y-100026977D01*
X112156723Y-100294691D01*
X111889009Y-100695354D01*
X111795000Y-101167968D01*
X111725000Y-101167968D01*
X111630991Y-100695354D01*
X111363277Y-100294691D01*
X110962614Y-100026977D01*
X110490000Y-99932968D01*
X110017386Y-100026977D01*
X109616723Y-100294691D01*
X109349009Y-100695354D01*
X109255000Y-101167968D01*
X109185000Y-101167968D01*
X109090991Y-100695354D01*
X108823277Y-100294691D01*
X108422614Y-100026977D01*
X107950000Y-99932968D01*
X107477386Y-100026977D01*
X107076723Y-100294691D01*
X106809009Y-100695354D01*
X106715000Y-101167968D01*
X106645000Y-101167968D01*
X106550991Y-100695354D01*
X106283277Y-100294691D01*
X105882614Y-100026977D01*
X105410000Y-99932968D01*
X104937386Y-100026977D01*
X104536723Y-100294691D01*
X104269009Y-100695354D01*
X104175000Y-101167968D01*
X104105000Y-101167968D01*
X104010991Y-100695354D01*
X103743277Y-100294691D01*
X103342614Y-100026977D01*
X102870000Y-99932968D01*
X102397386Y-100026977D01*
X101996723Y-100294691D01*
X101729009Y-100695354D01*
X101635000Y-101167968D01*
X101565000Y-101167968D01*
X101470991Y-100695354D01*
X101203277Y-100294691D01*
X100802614Y-100026977D01*
X100330000Y-99932968D01*
X99857386Y-100026977D01*
X99456723Y-100294691D01*
X99189009Y-100695354D01*
X99095000Y-101167968D01*
X91706461Y-101167968D01*
X91514481Y-100703343D01*
X91069003Y-100257086D01*
X90486659Y-100015276D01*
X89856107Y-100014725D01*
X89273343Y-100255519D01*
X88827086Y-100700997D01*
X88585276Y-101283341D01*
X88584725Y-101913893D01*
X88825519Y-102496657D01*
X88923029Y-102594337D01*
X88718559Y-102725910D01*
X88573569Y-102938110D01*
X88522560Y-103190000D01*
X86753440Y-103190000D01*
X86753440Y-103124000D01*
X86709162Y-102888683D01*
X86570090Y-102672559D01*
X86423128Y-102572144D01*
X86427188Y-102568379D01*
X86695983Y-101982946D01*
X86577367Y-101727000D01*
X85217000Y-101727000D01*
X85217000Y-101747000D01*
X84963000Y-101747000D01*
X84963000Y-101727000D01*
X84943000Y-101727000D01*
X84943000Y-101473000D01*
X84963000Y-101473000D01*
X84963000Y-100113164D01*
X85217000Y-100113164D01*
X85217000Y-101473000D01*
X86577367Y-101473000D01*
X86695983Y-101217054D01*
X86427188Y-100631621D01*
X85954818Y-100193615D01*
X85472944Y-99994025D01*
X85217000Y-100113164D01*
X84963000Y-100113164D01*
X84707056Y-99994025D01*
X84225182Y-100193615D01*
X83947000Y-100451560D01*
X83947000Y-99187000D01*
X131953000Y-99187000D01*
X131953000Y-126480985D01*
M02*
